<svg width="32" height="32" viewBox="0 0 32 32" fill="none" xmlns="http://www.w3.org/2000/svg">
<path fill-rule="evenodd" clip-rule="evenodd" d="M22.3376 6.72096C23.6828 6.72096 24.9333 6.96747 26.127 7.44153C27.3206 7.95351 28.3248 8.6172 29.1964 9.45153C30.0679 10.3048 30.7689 11.3098 31.2615 12.4476C31.7731 13.5853 32.0005 14.8368 32.0005 16.1452C32.0005 17.4536 31.7541 18.6862 31.2615 19.8428C30.75 20.9806 30.0679 21.9856 29.1964 22.8389C28.3248 23.6922 27.3206 24.3559 26.127 24.83C24.9333 25.3419 23.6828 25.5695 22.3376 25.5695H15.1189V6.72095L22.3376 6.72096ZM24.7253 21.5499C25.4453 21.2654 26.0516 20.8293 26.5631 20.2983C27.0747 19.7674 27.4347 19.1227 27.7378 18.4211C28.022 17.7005 28.1547 16.961 28.1547 16.1456C28.1547 15.3302 28.0221 14.5528 27.7378 13.8322C27.4536 13.1116 27.0747 12.5049 26.5631 11.9739C26.0516 11.443 25.4453 11.0258 24.7253 10.7034C24.0053 10.419 23.2095 10.2483 22.338 10.2483H18.9655V22.0239H22.338C23.2095 22.0239 24.0053 21.8722 24.7253 21.5499V21.5499Z" fill="#151515"/>
<path fill-rule="evenodd" clip-rule="evenodd" d="M5.76007 6.3999C2.57699 6.3999 0.000244141 8.97878 0.000244141 12.1644C0.000244141 15.3501 2.577 17.929 5.76007 17.929C8.94309 17.929 11.5198 15.3501 11.5198 12.1644C11.5009 8.97878 8.92413 6.3999 5.76007 6.3999ZM5.76026 14.5155C4.45293 14.5155 3.3919 13.4536 3.3919 12.1452C3.3919 10.8368 4.45293 9.7749 5.76026 9.7749C7.06755 9.7749 8.12859 10.8368 8.12859 12.1452C8.10963 13.4536 7.04864 14.5155 5.76026 14.5155Z" fill="#151515"/>
</svg>
