<svg width="32" height="32" fill="none" xmlns="http://www.w3.org/2000/svg"><path fill-rule="evenodd" clip-rule="evenodd" d="M22.338 6.721c1.345 0 2.595.246 3.789.72a10.14 10.14 0 0 1 3.07 2.01 9.411 9.411 0 0 1 2.065 2.997c.511 1.137.739 2.389.739 3.697a9.338 9.338 0 0 1-.74 3.698 9.725 9.725 0 0 1-2.065 2.996 9.135 9.135 0 0 1-3.069 1.991c-1.194.512-2.444.74-3.79.74H15.12V6.72l7.219.001Zm2.387 14.829a5.192 5.192 0 0 0 1.838-1.252c.512-.53.872-1.175 1.175-1.877a6.07 6.07 0 0 0 .417-2.275c0-.816-.133-1.593-.417-2.314a5.543 5.543 0 0 0-1.175-1.858 5.789 5.789 0 0 0-1.838-1.27 6.45 6.45 0 0 0-2.387-.456h-3.373v11.776h3.373c.871 0 1.667-.152 2.387-.474ZM5.76 6.4A5.76 5.76 0 0 0 0 12.164a5.76 5.76 0 1 0 11.52 0C11.5 8.98 8.924 6.4 5.76 6.4Zm0 8.116a2.37 2.37 0 0 1 0-4.741 2.37 2.37 0 0 1 2.369 2.37c-.02 1.309-1.08 2.37-2.369 2.37Z" fill="#151515"/></svg>